<svg width="22" height="28" viewBox="0 0 22 28" fill="none" xmlns="http://www.w3.org/2000/svg">
<path d="M11.5 8.60938C8.5 8.60938 6.10938 11.0469 6.10938 14C6.10938 17 8.5 19.3906 11.5 19.3906C14.4531 19.3906 16.8906 17 16.8906 14C16.8906 11.0469 14.4531 8.60938 11.5 8.60938ZM11.5 17.5156C9.57812 17.5156 7.98438 15.9688 7.98438 14C7.98438 12.0781 9.53125 10.5312 11.5 10.5312C13.4219 10.5312 14.9688 12.0781 14.9688 14C14.9688 15.9688 13.4219 17.5156 11.5 17.5156ZM18.3438 8.42188C18.3438 7.71875 17.7812 7.15625 17.0781 7.15625C16.375 7.15625 15.8125 7.71875 15.8125 8.42188C15.8125 9.125 16.375 9.6875 17.0781 9.6875C17.7812 9.6875 18.3438 9.125 18.3438 8.42188ZM21.9062 9.6875C21.8125 8 21.4375 6.5 20.2188 5.28125C19 4.0625 17.5 3.6875 15.8125 3.59375C14.0781 3.5 8.875 3.5 7.14062 3.59375C5.45312 3.6875 4 4.0625 2.73438 5.28125C1.51562 6.5 1.14062 8 1.04688 9.6875C0.953125 11.4219 0.953125 16.625 1.04688 18.3594C1.14062 20.0469 1.51562 21.5 2.73438 22.7656C4 23.9844 5.45312 24.3594 7.14062 24.4531C8.875 24.5469 14.0781 24.5469 15.8125 24.4531C17.5 24.3594 19 23.9844 20.2188 22.7656C21.4375 21.5 21.8125 20.0469 21.9062 18.3594C22 16.625 22 11.4219 21.9062 9.6875ZM19.6562 20.1875C19.3281 21.125 18.5781 21.8281 17.6875 22.2031C16.2812 22.7656 13 22.625 11.5 22.625C9.95312 22.625 6.67188 22.7656 5.3125 22.2031C4.375 21.8281 3.67188 21.125 3.29688 20.1875C2.73438 18.8281 2.875 15.5469 2.875 14C2.875 12.5 2.73438 9.21875 3.29688 7.8125C3.67188 6.92188 4.375 6.21875 5.3125 5.84375C6.67188 5.28125 9.95312 5.42188 11.5 5.42188C13 5.42188 16.2812 5.28125 17.6875 5.84375C18.5781 6.17188 19.2812 6.92188 19.6562 7.8125C20.2188 9.21875 20.0781 12.5 20.0781 14C20.0781 15.5469 20.2188 18.8281 19.6562 20.1875Z" fill="#14213D"/>
</svg>
