<svg width="28" height="12" viewBox="0 0 28 12" fill="none" xmlns="http://www.w3.org/2000/svg">
<path d="M14.6538 1.50879C14.758 1.53483 14.8573 1.55436 14.9517 1.56738C15.0461 1.5804 15.1291 1.59017 15.2007 1.59668C15.2853 1.60645 15.3634 1.6097 15.4351 1.60645C15.5262 1.60645 15.6401 1.59831 15.7769 1.58203C15.9168 1.56576 16.0601 1.55111 16.2065 1.53809C16.353 1.52181 16.493 1.51204 16.6265 1.50879C16.7632 1.50228 16.8739 1.51042 16.9585 1.5332C17.0431 1.55273 17.1294 1.58366 17.2173 1.62598C17.3084 1.66504 17.3914 1.71549 17.4663 1.77734C17.5412 1.83594 17.603 1.90592 17.6519 1.9873C17.7007 2.06543 17.7284 2.15495 17.7349 2.25586C17.7316 2.38281 17.7023 2.50163 17.647 2.6123C17.6014 2.70671 17.5249 2.80436 17.4175 2.90527C17.3101 3.00293 17.1554 3.0778 16.9536 3.12988C17.0545 3.1429 17.1408 3.16569 17.2124 3.19824C17.2873 3.22754 17.3507 3.26335 17.4028 3.30566C17.4582 3.34473 17.5021 3.38867 17.5347 3.4375C17.5705 3.48633 17.5981 3.53516 17.6177 3.58398C17.6665 3.69792 17.6893 3.82487 17.686 3.96484C17.6665 4.14714 17.6291 4.29199 17.5737 4.39941C17.5216 4.50684 17.4614 4.58984 17.3931 4.64844C17.3247 4.70703 17.2547 4.74772 17.1831 4.77051C17.1115 4.79329 17.0464 4.8112 16.9878 4.82422C16.9292 4.83724 16.8576 4.84375 16.7729 4.84375C16.6883 4.84375 16.5972 4.84212 16.4995 4.83887C16.4051 4.83236 16.3075 4.82747 16.2065 4.82422C16.1056 4.81771 16.0096 4.81771 15.9185 4.82422C15.8436 4.83073 15.7524 4.83724 15.645 4.84375C15.5539 4.85026 15.4399 4.8584 15.3032 4.86816C15.1665 4.87467 15.007 4.88281 14.8247 4.89258C14.8605 4.86654 14.8898 4.83724 14.9126 4.80469C14.9386 4.76888 14.9598 4.73796 14.9761 4.71191C14.9924 4.67936 15.007 4.64844 15.02 4.61914C15.0298 4.5931 15.0379 4.52148 15.0444 4.4043C15.0509 4.28711 15.0558 4.14714 15.0591 3.98438C15.0623 3.81836 15.064 3.64095 15.064 3.45215C15.0672 3.26009 15.0656 3.07617 15.0591 2.90039C15.0558 2.72135 15.0493 2.56348 15.0396 2.42676C15.033 2.28678 15.0233 2.18587 15.0103 2.12402C14.9907 2.05566 14.9647 1.98568 14.9321 1.91406C14.9061 1.85221 14.8687 1.78548 14.8198 1.71387C14.7743 1.64225 14.7189 1.57389 14.6538 1.50879ZM15.6841 2.00684C15.6841 2.01986 15.6857 2.0638 15.689 2.13867C15.6922 2.20378 15.6955 2.30469 15.6987 2.44141C15.7052 2.57487 15.7134 2.7653 15.7231 3.0127C15.8045 3.0485 15.8843 3.06803 15.9624 3.07129C16.0405 3.07129 16.1105 3.06803 16.1724 3.06152C16.244 3.05176 16.3123 3.03548 16.3774 3.0127C16.4653 2.97689 16.5337 2.91829 16.5825 2.83691C16.6346 2.75553 16.6688 2.6709 16.6851 2.58301C16.7046 2.49186 16.7095 2.40723 16.6997 2.3291C16.6899 2.24772 16.6688 2.18913 16.6362 2.15332C16.5744 2.09798 16.4979 2.05241 16.4067 2.0166C16.3286 1.9873 16.2293 1.96777 16.1089 1.95801C15.9917 1.94499 15.8501 1.96126 15.6841 2.00684ZM15.6597 4.32129C15.7801 4.38314 15.8859 4.42383 15.9771 4.44336C16.0682 4.46289 16.1447 4.47266 16.2065 4.47266C16.2782 4.47266 16.34 4.46289 16.3921 4.44336C16.4539 4.41406 16.5142 4.375 16.5728 4.32617C16.6346 4.27409 16.6802 4.21387 16.7095 4.14551C16.742 4.07389 16.755 3.99577 16.7485 3.91113C16.742 3.82324 16.7046 3.72721 16.6362 3.62305C16.5744 3.54818 16.4995 3.48958 16.4116 3.44727C16.3335 3.41146 16.2342 3.38867 16.1138 3.37891C15.9966 3.36914 15.8517 3.39681 15.6792 3.46191L15.6597 4.32129ZM17.9351 1.63574C18.0457 1.64876 18.1385 1.65853 18.2134 1.66504C18.2915 1.66829 18.355 1.67318 18.4038 1.67969C18.4624 1.6862 18.508 1.68945 18.5405 1.68945C18.5763 1.69271 18.63 1.69108 18.7017 1.68457C18.7635 1.67806 18.8465 1.66992 18.9507 1.66016C19.0581 1.65039 19.1948 1.63574 19.3608 1.61621C19.286 1.68132 19.2257 1.74479 19.1802 1.80664C19.1379 1.86523 19.1053 1.91732 19.0825 1.96289C19.0532 2.01823 19.0353 2.07031 19.0288 2.11914C19.0158 2.19727 19.0044 2.30469 18.9946 2.44141C18.9881 2.57487 18.9816 2.72135 18.9751 2.88086C18.9686 3.04036 18.9653 3.20475 18.9653 3.37402C18.9653 3.54329 18.967 3.70443 18.9702 3.85742C18.9767 4.00716 18.9865 4.14062 18.9995 4.25781C19.0158 4.375 19.0353 4.45964 19.0581 4.51172C19.0907 4.57031 19.1248 4.62891 19.1606 4.6875C19.1932 4.73633 19.2323 4.78678 19.2778 4.83887C19.3234 4.89095 19.3755 4.93327 19.4341 4.96582C19.242 4.95605 19.089 4.95117 18.9751 4.95117H18.7993C18.7472 4.95117 18.6805 4.95443 18.5991 4.96094C18.5308 4.96745 18.4445 4.97396 18.3403 4.98047C18.2362 4.98698 18.1108 4.99674 17.9644 5.00977C18.0392 4.92839 18.0978 4.85026 18.1401 4.77539C18.1825 4.70052 18.2166 4.63542 18.2427 4.58008C18.272 4.51497 18.2915 4.45312 18.3013 4.39453C18.3143 4.3099 18.3241 4.20573 18.3306 4.08203C18.3403 3.95508 18.3468 3.81999 18.3501 3.67676C18.3534 3.53027 18.3534 3.38216 18.3501 3.23242C18.3501 3.07943 18.3468 2.93294 18.3403 2.79297C18.3338 2.65299 18.3241 2.52604 18.311 2.41211C18.3013 2.29818 18.2882 2.20703 18.272 2.13867C18.2622 2.09635 18.2427 2.04915 18.2134 1.99707C18.1873 1.9515 18.1515 1.89941 18.106 1.84082C18.0636 1.77897 18.0067 1.71061 17.9351 1.63574ZM21.3677 1.47461C21.576 1.47135 21.7469 1.50879 21.8804 1.58691C22.0171 1.66504 22.1278 1.75781 22.2124 1.86523C22.297 1.97266 22.3621 2.08171 22.4077 2.19238C22.4533 2.2998 22.4891 2.38444 22.5151 2.44629C22.5216 2.46257 22.5347 2.48372 22.5542 2.50977C22.5705 2.53255 22.5933 2.56022 22.6226 2.59277C22.6551 2.62207 22.6958 2.65625 22.7446 2.69531C22.6437 2.69857 22.5542 2.70182 22.4761 2.70508C22.3979 2.70508 22.3312 2.70671 22.2759 2.70996C22.214 2.71322 22.1587 2.71647 22.1099 2.71973C22.061 2.72298 22.0008 2.72786 21.9292 2.73438C21.8641 2.74089 21.7843 2.7474 21.6899 2.75391C21.5955 2.76042 21.48 2.77018 21.3433 2.7832C21.4246 2.68555 21.4881 2.59928 21.5337 2.52441C21.5825 2.44629 21.6183 2.37793 21.6411 2.31934C21.6672 2.25749 21.6818 2.20378 21.6851 2.1582C21.6916 2.11263 21.6899 2.07357 21.6802 2.04102C21.6606 1.96615 21.6102 1.91243 21.5288 1.87988C21.2944 1.81478 21.0894 1.86686 20.9136 2.03613C20.741 2.20215 20.6174 2.47559 20.5425 2.85645C20.5067 3.04525 20.4725 3.24219 20.4399 3.44727C20.4106 3.64909 20.3993 3.83464 20.4058 4.00391C20.4123 4.16992 20.4448 4.30501 20.5034 4.40918C20.562 4.51335 20.6629 4.56217 20.8062 4.55566C20.9461 4.54915 21.0649 4.52637 21.1626 4.4873C21.2603 4.44499 21.3384 4.39616 21.397 4.34082C21.4556 4.28223 21.4963 4.22038 21.519 4.15527C21.5451 4.08691 21.5549 4.02344 21.5483 3.96484C21.5353 3.91927 21.5011 3.87044 21.4458 3.81836C21.397 3.77279 21.3237 3.72233 21.2261 3.66699C21.1284 3.6084 20.9884 3.54818 20.8062 3.48633C20.9787 3.47656 21.1203 3.47005 21.231 3.4668C21.3449 3.46029 21.4344 3.45378 21.4995 3.44727C21.5776 3.44076 21.6379 3.43587 21.6802 3.43262C21.7192 3.42936 21.7762 3.42611 21.8511 3.42285C21.9162 3.4196 21.9992 3.41797 22.1001 3.41797C22.2043 3.41797 22.3345 3.41634 22.4907 3.41309C22.4321 3.47168 22.3866 3.52539 22.354 3.57422C22.3377 3.60026 22.3231 3.62305 22.3101 3.64258C22.297 3.67513 22.2922 3.74186 22.2954 3.84277C22.2954 3.92741 22.3019 4.05273 22.3149 4.21875C22.328 4.38151 22.3524 4.60449 22.3882 4.8877L21.7388 4.97559L21.7681 4.31641C21.6932 4.49544 21.5988 4.62891 21.4849 4.7168C21.3742 4.80469 21.2684 4.86654 21.1675 4.90234C21.047 4.94466 20.9217 4.96419 20.7915 4.96094C20.6222 4.94466 20.453 4.9056 20.2837 4.84375C20.1144 4.7819 19.9647 4.6875 19.8345 4.56055C19.7043 4.43034 19.6034 4.2627 19.5317 4.05762C19.4634 3.85254 19.4422 3.59863 19.4683 3.2959C19.4976 2.99316 19.5692 2.72949 19.6831 2.50488C19.8003 2.27702 19.9451 2.08822 20.1177 1.93848C20.2902 1.78874 20.4839 1.67643 20.6987 1.60156C20.9168 1.52344 21.1398 1.48112 21.3677 1.47461ZM11.9805 7.5332C12.0944 7.54622 12.1904 7.55599 12.2686 7.5625C12.3467 7.56576 12.4085 7.56901 12.4541 7.57227C12.5094 7.57552 12.5534 7.57715 12.5859 7.57715C12.6413 7.57715 12.7048 7.57552 12.7764 7.57227C12.8382 7.56901 12.9098 7.56413 12.9912 7.55762C13.0758 7.54785 13.167 7.5332 13.2646 7.51367C13.2191 7.5625 13.1816 7.6097 13.1523 7.65527C13.123 7.69759 13.1003 7.73665 13.084 7.77246C13.0645 7.81152 13.0482 7.84733 13.0352 7.87988C13.0221 7.9222 13.0075 7.9873 12.9912 8.0752C12.9749 8.15007 12.957 8.25586 12.9375 8.39258C12.9212 8.5293 12.9001 8.70833 12.874 8.92969C12.9847 8.93294 13.0807 8.93457 13.1621 8.93457C13.2435 8.93132 13.3118 8.92969 13.3672 8.92969H13.5283C13.5739 8.92643 13.626 8.92318 13.6846 8.91992C13.7822 8.91667 13.9303 8.9069 14.1289 8.89062C14.1452 8.74089 14.1533 8.6123 14.1533 8.50488C14.1566 8.39421 14.1549 8.30143 14.1484 8.22656C14.1419 8.14193 14.1322 8.07031 14.1191 8.01172C14.1094 7.97917 14.0947 7.9401 14.0752 7.89453C14.0589 7.85547 14.0361 7.80827 14.0068 7.75293C13.9808 7.69434 13.945 7.62435 13.8994 7.54297C13.984 7.55599 14.0589 7.56576 14.124 7.57227C14.1924 7.57552 14.2493 7.57878 14.2949 7.58203C14.347 7.58529 14.391 7.58691 14.4268 7.58691C14.4626 7.58691 14.5098 7.58529 14.5684 7.58203C14.6172 7.57878 14.6774 7.57715 14.749 7.57715C14.8206 7.57389 14.9085 7.56901 15.0127 7.5625C14.9867 7.60807 14.9639 7.65527 14.9443 7.7041C14.9248 7.75293 14.9085 7.79688 14.8955 7.83594C14.8825 7.88151 14.8695 7.92708 14.8564 7.97266C14.8402 8.04102 14.8255 8.1403 14.8125 8.27051C14.8027 8.40072 14.793 8.54557 14.7832 8.70508C14.7767 8.86458 14.7702 9.0306 14.7637 9.20312C14.7604 9.37565 14.7572 9.53841 14.7539 9.69141C14.7539 9.8444 14.7555 9.98112 14.7588 10.1016C14.762 10.2188 14.7686 10.3018 14.7783 10.3506C14.7881 10.4092 14.8044 10.4694 14.8271 10.5312C14.8467 10.5866 14.8727 10.6468 14.9053 10.7119C14.9378 10.7738 14.9801 10.8324 15.0322 10.8877L13.8555 10.9756C13.9043 10.93 13.9434 10.8861 13.9727 10.8438C14.002 10.7982 14.0247 10.7591 14.041 10.7266C14.0573 10.6908 14.0687 10.6566 14.0752 10.624C14.0785 10.585 14.0833 10.5166 14.0898 10.4189C14.0964 10.3376 14.1029 10.222 14.1094 10.0723C14.1159 9.92253 14.1224 9.72396 14.1289 9.47656C14.0833 9.47656 14.028 9.47819 13.9629 9.48145C13.901 9.48145 13.8424 9.48307 13.7871 9.48633C13.722 9.48958 13.6536 9.49121 13.582 9.49121C13.5104 9.49447 13.4355 9.49772 13.3574 9.50098C13.2923 9.50749 13.2191 9.514 13.1377 9.52051C13.0596 9.52376 12.9814 9.52865 12.9033 9.53516C12.8968 9.67188 12.8968 9.79232 12.9033 9.89648C12.9098 9.9974 12.9196 10.0837 12.9326 10.1553C12.9456 10.2399 12.9619 10.3132 12.9814 10.375C13.001 10.4336 13.0221 10.4922 13.0449 10.5508C13.0645 10.6029 13.0872 10.6582 13.1133 10.7168C13.1426 10.7754 13.1719 10.8275 13.2012 10.873C13.1393 10.8665 13.0824 10.8617 13.0303 10.8584C12.9782 10.8519 12.9326 10.8454 12.8936 10.8389C12.848 10.8356 12.804 10.8324 12.7617 10.8291C12.7194 10.8291 12.6689 10.8275 12.6104 10.8242C12.5583 10.821 12.4932 10.8193 12.415 10.8193C12.3369 10.8161 12.2458 10.8145 12.1416 10.8145C12.2035 10.7526 12.2523 10.6924 12.2881 10.6338C12.3271 10.5719 12.3548 10.5166 12.3711 10.4678C12.3906 10.4092 12.4036 10.3555 12.4102 10.3066C12.4134 10.2643 12.415 10.1846 12.415 10.0674C12.4183 9.9502 12.4183 9.81673 12.415 9.66699C12.415 9.514 12.4134 9.35449 12.4102 9.18848C12.4069 9.01921 12.402 8.86133 12.3955 8.71484C12.3923 8.56836 12.3874 8.44303 12.3809 8.33887C12.3776 8.23145 12.3743 8.16471 12.3711 8.13867C12.3548 8.08008 12.3304 8.0166 12.2979 7.94824C12.2686 7.8929 12.2295 7.82943 12.1807 7.75781C12.1318 7.68294 12.0651 7.60807 11.9805 7.5332ZM14.8809 7.66504C15.1087 7.67155 15.2975 7.67643 15.4473 7.67969C15.6003 7.67969 15.724 7.67969 15.8184 7.67969H16.0771H17.5322C17.5387 7.74479 17.5436 7.80827 17.5469 7.87012C17.5534 7.92871 17.5566 7.98079 17.5566 8.02637C17.5566 8.08171 17.555 8.13216 17.5518 8.17773C17.5485 8.22331 17.5436 8.27214 17.5371 8.32422C17.5306 8.36979 17.5241 8.41862 17.5176 8.4707C17.5111 8.52279 17.4997 8.5765 17.4834 8.63184C17.4378 8.45605 17.376 8.32259 17.2979 8.23145C17.223 8.1403 17.1465 8.07357 17.0684 8.03125C16.9772 7.98242 16.8812 7.95638 16.7803 7.95312C16.6468 7.95964 16.5426 7.97103 16.4678 7.9873C16.3929 8.00358 16.3343 8.02637 16.292 8.05566C16.2497 8.08496 16.2171 8.11914 16.1943 8.1582C16.1748 8.19401 16.1536 8.2347 16.1309 8.28027C16.1113 8.31934 16.0934 8.37956 16.0771 8.46094C16.0609 8.5293 16.0446 8.62207 16.0283 8.73926C16.0153 8.85645 16.0007 9.00781 15.9844 9.19336C16.0723 9.16732 16.1423 9.1429 16.1943 9.12012C16.2497 9.09733 16.2936 9.0778 16.3262 9.06152C16.362 9.04199 16.388 9.02409 16.4043 9.00781C16.4173 8.98828 16.4368 8.95247 16.4629 8.90039C16.4824 8.85482 16.5085 8.79297 16.541 8.71484C16.5768 8.63672 16.6191 8.5293 16.668 8.39258C16.6745 8.54232 16.6777 8.66764 16.6777 8.76855C16.6777 8.86621 16.6794 8.94596 16.6826 9.00781C16.6826 9.07943 16.6842 9.13639 16.6875 9.17871V9.36426C16.6875 9.43262 16.6875 9.52539 16.6875 9.64258C16.6908 9.75651 16.6956 9.90137 16.7021 10.0771C16.6631 9.95671 16.6273 9.8623 16.5947 9.79395C16.5654 9.72233 16.5394 9.66862 16.5166 9.63281C16.4906 9.59049 16.4678 9.5612 16.4482 9.54492C16.4255 9.53841 16.3945 9.5319 16.3555 9.52539C16.3197 9.52214 16.2741 9.52051 16.2188 9.52051C16.1667 9.52051 16.0999 9.52865 16.0186 9.54492C16.0088 9.72396 16.0072 9.86882 16.0137 9.97949C16.0234 10.0869 16.0365 10.1699 16.0527 10.2285C16.069 10.2969 16.0885 10.3457 16.1113 10.375C16.1406 10.4043 16.1992 10.4287 16.2871 10.4482C16.375 10.4645 16.4743 10.471 16.585 10.4678C16.6989 10.4613 16.8145 10.4417 16.9316 10.4092C17.0488 10.3766 17.153 10.3229 17.2441 10.248C17.3125 10.1862 17.3857 10.1081 17.4639 10.0137C17.529 9.93229 17.6006 9.82975 17.6787 9.70605C17.7601 9.58236 17.8398 9.43262 17.918 9.25684C17.9049 9.40332 17.8952 9.52539 17.8887 9.62305C17.8854 9.71745 17.8805 9.79395 17.874 9.85254C17.8675 9.9209 17.8626 9.97298 17.8594 10.0088C17.8594 10.0479 17.8545 10.1032 17.8447 10.1748C17.8382 10.2367 17.8268 10.3213 17.8105 10.4287C17.7975 10.5329 17.7796 10.6663 17.7568 10.8291C17.6038 10.8324 17.459 10.8356 17.3223 10.8389C17.1855 10.8389 17.0651 10.8405 16.9609 10.8438C16.8372 10.847 16.7233 10.8503 16.6191 10.8535C16.5117 10.8535 16.3929 10.8584 16.2627 10.8682C16.1488 10.8747 16.0137 10.8844 15.8574 10.8975C15.7044 10.9105 15.5352 10.9284 15.3496 10.9512C15.3659 10.7298 15.3773 10.5215 15.3838 10.3262C15.3936 10.1276 15.4001 9.95345 15.4033 9.80371C15.4066 9.62793 15.4066 9.46517 15.4033 9.31543C15.4196 8.94108 15.4131 8.63835 15.3838 8.40723C15.3545 8.17611 15.3203 8.02799 15.2812 7.96289C15.2617 7.9401 15.234 7.91243 15.1982 7.87988C15.1689 7.85384 15.1283 7.82292 15.0762 7.78711C15.0241 7.7513 14.959 7.71061 14.8809 7.66504ZM18.6602 7.69434C18.8229 7.7041 18.9596 7.71224 19.0703 7.71875C19.1842 7.72201 19.2786 7.72526 19.3535 7.72852C19.4382 7.73177 19.5098 7.73177 19.5684 7.72852C19.627 7.72526 19.7067 7.71712 19.8076 7.7041C19.8923 7.69434 20.0046 7.67969 20.1445 7.66016C20.2878 7.63737 20.4652 7.60807 20.6768 7.57227C20.6019 7.64714 20.5433 7.71549 20.501 7.77734C20.4619 7.83594 20.431 7.88639 20.4082 7.92871C20.3822 7.98079 20.3643 8.02474 20.3545 8.06055C20.348 8.0931 20.3545 8.17448 20.374 8.30469C20.3936 8.4349 20.4212 8.58952 20.457 8.76855C20.4928 8.94434 20.5319 9.13314 20.5742 9.33496C20.6165 9.53353 20.6589 9.7207 20.7012 9.89648C20.7435 10.069 20.7809 10.2171 20.8135 10.3408C20.8493 10.4613 20.8753 10.5329 20.8916 10.5557C20.9404 10.624 20.9714 10.6696 20.9844 10.6924C20.9974 10.7119 21.0202 10.7298 21.0527 10.7461C21.0658 10.7526 21.0869 10.7624 21.1162 10.7754C21.1423 10.7884 21.1764 10.8047 21.2188 10.8242C21.2643 10.8438 21.3213 10.8665 21.3896 10.8926C21.2627 10.8991 21.1536 10.904 21.0625 10.9072C20.9714 10.9072 20.8965 10.9089 20.8379 10.9121C20.7695 10.9154 20.7109 10.9186 20.6621 10.9219C20.6133 10.9219 20.5547 10.9251 20.4863 10.9316C20.4277 10.9382 20.3512 10.9447 20.2568 10.9512C20.1657 10.9577 20.0583 10.9642 19.9346 10.9707C19.9997 10.9251 20.0518 10.8844 20.0908 10.8486C20.1331 10.8096 20.1657 10.777 20.1885 10.751C20.2145 10.7184 20.2324 10.6891 20.2422 10.6631C20.2487 10.6338 20.2536 10.5898 20.2568 10.5312C20.2601 10.4792 20.2601 10.4108 20.2568 10.3262C20.2536 10.2383 20.2454 10.1243 20.2324 9.98438L18.9482 10.1162C18.9157 10.1715 18.8913 10.2204 18.875 10.2627C18.8587 10.3018 18.8473 10.3359 18.8408 10.3652C18.8311 10.401 18.8278 10.4303 18.8311 10.4531C18.8376 10.4792 18.849 10.5101 18.8652 10.5459C18.8815 10.5785 18.9043 10.6175 18.9336 10.6631C18.9661 10.7054 19.0133 10.7559 19.0752 10.8145C18.9938 10.8112 18.9108 10.8096 18.8262 10.8096C18.7415 10.8096 18.6634 10.8112 18.5918 10.8145C18.5072 10.8177 18.4242 10.821 18.3428 10.8242C18.2614 10.8275 18.1686 10.8324 18.0645 10.8389C17.9766 10.8454 17.874 10.8535 17.7568 10.8633C17.6364 10.8698 17.5078 10.8796 17.3711 10.8926C17.4557 10.8535 17.5273 10.8145 17.5859 10.7754C17.6445 10.7331 17.6934 10.694 17.7324 10.6582C17.778 10.6191 17.8171 10.5817 17.8496 10.5459C17.8724 10.5133 17.918 10.4385 17.9863 10.3213C18.0547 10.2008 18.1312 10.0592 18.2158 9.89648C18.3037 9.73372 18.3949 9.55957 18.4893 9.37402C18.5869 9.18848 18.6748 9.01432 18.7529 8.85156C18.8311 8.68555 18.8945 8.54232 18.9434 8.42188C18.9922 8.30143 19.0166 8.22331 19.0166 8.1875C19.0101 8.14518 18.9938 8.09798 18.9678 8.0459C18.945 8.00033 18.9092 7.94824 18.8604 7.88965C18.8148 7.83105 18.748 7.76595 18.6602 7.69434ZM20.1738 9.62305C20.1543 9.50911 20.1364 9.41146 20.1201 9.33008C20.1038 9.24544 20.0908 9.17546 20.0811 9.12012C20.068 9.05501 20.0583 8.99805 20.0518 8.94922C20.042 8.90365 20.0306 8.84505 20.0176 8.77344C20.0046 8.71159 19.9883 8.63509 19.9688 8.54395C19.9525 8.44954 19.9313 8.33724 19.9053 8.20703C19.7197 8.57812 19.5749 8.86621 19.4707 9.07129C19.3698 9.27311 19.2965 9.42122 19.251 9.51562C19.1956 9.6263 19.1647 9.69141 19.1582 9.71094L20.1738 9.62305ZM20.96 7.43555C21.0641 7.45182 21.1585 7.46647 21.2432 7.47949C21.3278 7.48926 21.401 7.4974 21.4629 7.50391C21.5345 7.51367 21.598 7.52181 21.6533 7.52832C21.7217 7.53809 21.8242 7.52669 21.9609 7.49414C22.0977 7.45833 22.2474 7.42578 22.4102 7.39648C22.5762 7.36393 22.7454 7.34603 22.918 7.34277C23.0905 7.33626 23.2484 7.36719 23.3916 7.43555C23.5348 7.50391 23.652 7.57227 23.7432 7.64062C23.8343 7.70898 23.9059 7.78223 23.958 7.86035C24.0133 7.93522 24.0524 8.01497 24.0752 8.09961C24.098 8.18424 24.111 8.27702 24.1143 8.37793C24.111 8.52767 24.0752 8.67253 24.0068 8.8125C23.9775 8.87109 23.9385 8.93294 23.8896 8.99805C23.8441 9.0599 23.7871 9.12012 23.7188 9.17871C23.6504 9.2373 23.569 9.29264 23.4746 9.34473C23.3835 9.39681 23.276 9.44238 23.1523 9.48145C23.2728 9.51725 23.3721 9.55957 23.4502 9.6084C23.5316 9.65723 23.5967 9.7028 23.6455 9.74512C23.7041 9.7972 23.748 9.84766 23.7773 9.89648C23.8132 9.96484 23.8376 10.0234 23.8506 10.0723C23.8636 10.1211 23.8717 10.1683 23.875 10.2139C23.8815 10.2562 23.8896 10.3001 23.8994 10.3457C23.9092 10.3913 23.9303 10.4434 23.9629 10.502C23.9889 10.5475 24.0199 10.5947 24.0557 10.6436C24.0882 10.6859 24.1257 10.7314 24.168 10.7803C24.2135 10.8291 24.2689 10.8763 24.334 10.9219C24.2428 10.9251 24.1582 10.9268 24.0801 10.9268C24.0052 10.9268 23.9401 10.9268 23.8848 10.9268C23.8197 10.9268 23.7578 10.9251 23.6992 10.9219C23.6406 10.9186 23.5674 10.917 23.4795 10.917C23.4046 10.917 23.3086 10.917 23.1914 10.917C23.0775 10.917 22.9391 10.9186 22.7764 10.9219C22.848 10.8665 22.9066 10.8112 22.9521 10.7559C22.9977 10.7005 23.0335 10.6501 23.0596 10.6045C23.0889 10.5524 23.11 10.502 23.123 10.4531C23.1393 10.3652 23.141 10.2741 23.1279 10.1797C23.1182 10.0983 23.0921 10.0088 23.0498 9.91113C23.0075 9.81022 22.9391 9.70931 22.8447 9.6084C22.7503 9.62467 22.6706 9.6377 22.6055 9.64746C22.5436 9.65397 22.4899 9.66048 22.4443 9.66699C22.3923 9.6735 22.3499 9.67839 22.3174 9.68164C22.2881 9.6849 22.2555 9.68815 22.2197 9.69141C22.1904 9.69466 22.1579 9.69954 22.1221 9.70605C22.0895 9.70931 22.0586 9.71419 22.0293 9.7207C22.0228 9.86068 22.0228 9.98275 22.0293 10.0869C22.0358 10.1878 22.0439 10.2725 22.0537 10.3408C22.0667 10.4222 22.0814 10.4922 22.0977 10.5508C22.1139 10.6094 22.1367 10.6663 22.166 10.7217C22.1888 10.7673 22.2181 10.8161 22.2539 10.8682C22.2897 10.917 22.3304 10.9577 22.376 10.9902C22.2913 10.9902 22.21 10.9902 22.1318 10.9902C22.057 10.9902 21.9886 10.9886 21.9268 10.9854C21.8551 10.9854 21.7868 10.9837 21.7217 10.9805C21.6566 10.9772 21.5833 10.9756 21.502 10.9756C21.4336 10.9756 21.3522 10.9756 21.2578 10.9756C21.1667 10.9756 21.0674 10.9772 20.96 10.9805C21.0446 10.8926 21.1113 10.8177 21.1602 10.7559C21.209 10.694 21.2464 10.6419 21.2725 10.5996C21.3018 10.554 21.3197 10.515 21.3262 10.4824C21.3327 10.4303 21.3376 10.3376 21.3408 10.2041C21.3473 10.0674 21.3522 9.91113 21.3555 9.73535C21.3587 9.55957 21.3604 9.37565 21.3604 9.18359C21.3604 8.99154 21.3587 8.8125 21.3555 8.64648C21.3522 8.47721 21.349 8.33236 21.3457 8.21191C21.3424 8.09147 21.3392 8.01497 21.3359 7.98242C21.3262 7.92383 21.305 7.86523 21.2725 7.80664C21.2464 7.75456 21.209 7.69596 21.1602 7.63086C21.1113 7.56576 21.0446 7.50065 20.96 7.43555ZM22.8057 9.1543C22.8382 9.13477 22.8659 9.11523 22.8887 9.0957C22.9115 9.07617 22.931 9.04525 22.9473 9.00293C22.9635 8.95736 22.9766 8.89388 22.9863 8.8125C22.9993 8.73112 23.014 8.62044 23.0303 8.48047C23.0433 8.34049 23.0335 8.22493 23.001 8.13379C22.9717 8.04264 22.931 7.97103 22.8789 7.91895C22.8301 7.86361 22.7747 7.82617 22.7129 7.80664C22.6543 7.78385 22.6022 7.77246 22.5566 7.77246C22.4655 7.77246 22.376 7.80013 22.2881 7.85547C22.2002 7.91081 22.1335 7.98568 22.0879 8.08008C22.0716 8.1224 22.057 8.19238 22.0439 8.29004C22.0342 8.37467 22.0277 8.49186 22.0244 8.6416C22.0212 8.79134 22.026 8.98828 22.0391 9.23242C22.1628 9.25195 22.2718 9.26009 22.3662 9.25684C22.4606 9.25033 22.5404 9.23893 22.6055 9.22266C22.6836 9.20638 22.7503 9.18359 22.8057 9.1543ZM24.1387 7.43555C24.3568 7.46159 24.5456 7.48112 24.7051 7.49414C24.8646 7.50391 24.9964 7.51204 25.1006 7.51855C25.221 7.52507 25.3219 7.52669 25.4033 7.52344C25.488 7.52018 25.6035 7.51204 25.75 7.49902C25.8737 7.48926 26.0365 7.47624 26.2383 7.45996C26.4401 7.44043 26.6924 7.41439 26.9951 7.38184C26.9984 7.45671 27 7.52995 27 7.60156C27.0033 7.66992 27.0065 7.73014 27.0098 7.78223C27.013 7.84408 27.0146 7.90104 27.0146 7.95312C27.0146 8.00846 27.0114 8.07845 27.0049 8.16309C26.9984 8.2347 26.987 8.32585 26.9707 8.43652C26.9577 8.54395 26.9365 8.67253 26.9072 8.82227C26.8617 8.64648 26.8177 8.50488 26.7754 8.39746C26.7331 8.28678 26.694 8.19889 26.6582 8.13379C26.6191 8.05892 26.5801 8.00195 26.541 7.96289C26.4987 7.93359 26.4482 7.90918 26.3896 7.88965C26.3376 7.87337 26.2708 7.86035 26.1895 7.85059C26.1113 7.84082 26.0186 7.84245 25.9111 7.85547C25.8949 8.28516 25.8835 8.63346 25.877 8.90039C25.8704 9.16732 25.8656 9.37565 25.8623 9.52539C25.859 9.70443 25.8574 9.83301 25.8574 9.91113C25.8607 10.0218 25.8786 10.1309 25.9111 10.2383C25.9372 10.3294 25.9795 10.4238 26.0381 10.5215C26.0967 10.6191 26.1813 10.7054 26.292 10.7803H25.6963C25.641 10.7803 25.5726 10.7835 25.4912 10.79C25.4229 10.7965 25.335 10.8031 25.2275 10.8096C25.1234 10.8161 25.0013 10.8275 24.8613 10.8438C24.9102 10.7591 24.9492 10.6826 24.9785 10.6143C25.0078 10.5459 25.0306 10.4873 25.0469 10.4385C25.0664 10.3799 25.0811 10.3278 25.0908 10.2822C25.0941 10.2171 25.1022 10.0853 25.1152 9.88672C25.1185 9.80534 25.1217 9.70443 25.125 9.58398C25.1315 9.46354 25.138 9.32031 25.1445 9.1543C25.1543 8.98828 25.1624 8.79785 25.1689 8.58301C25.1787 8.36491 25.1885 8.11914 25.1982 7.8457C25.1396 7.82943 25.0843 7.83105 25.0322 7.85059C24.9801 7.86686 24.9346 7.88802 24.8955 7.91406C24.8499 7.94661 24.806 7.98568 24.7637 8.03125C24.7214 8.08659 24.6742 8.1582 24.6221 8.24609C24.5765 8.32096 24.5244 8.42025 24.4658 8.54395C24.4072 8.66439 24.3405 8.81413 24.2656 8.99316C24.2493 8.80436 24.238 8.64974 24.2314 8.5293C24.2249 8.4056 24.2201 8.30957 24.2168 8.24121C24.2135 8.15983 24.2119 8.09961 24.2119 8.06055C24.2119 8.02474 24.2087 7.97754 24.2021 7.91895C24.1956 7.87012 24.1875 7.80664 24.1777 7.72852C24.168 7.64714 24.1549 7.54948 24.1387 7.43555Z" fill="#14213D"/>
<path d="M8.25984 8.03501C8.64754 8.56475 8.83026 8.846 8.83026 9.13937C8.83026 9.71875 8.3344 9.99967 7.6664 9.99967C7.37194 9.99967 7.18186 9.99934 6.70148 9.78247C6.70148 9.78247 6.39023 9.53529 5.66182 9.56068C4.92662 9.53545 4.61518 9.78558 4.61518 9.78558C4.1348 10.0023 3.95152 10 3.65744 10C2.98943 10 2.4932 9.7194 2.4932 9.1397C2.4932 8.84633 2.67648 8.56541 3.06399 8.03534C3.06399 8.03534 3.79655 6.97963 4.43133 6.48297C4.89 6.12457 5.55876 6.12588 5.55876 6.12588H5.76507V6.12572C5.76507 6.12572 6.46309 6.12424 6.89307 6.48297C7.50822 6.99764 8.25984 8.03518 8.25984 8.03501ZM4.02985 5.41989C4.72824 5.41989 5.29432 4.65427 5.29432 3.70994C5.29432 2.76562 4.72824 2 4.02985 2C3.33146 2 2.76538 2.76562 2.76538 3.70994C2.76538 4.65427 3.33146 5.41989 4.02985 5.41989ZM2.81804 7.07594C3.33278 6.86971 3.45018 6.1385 3.08004 5.44266C2.70989 4.74682 1.99262 4.34976 1.47789 4.55583C0.963151 4.76189 0.845935 5.49327 1.21589 6.18911C1.58604 6.88495 2.30331 7.28184 2.81804 7.07594ZM6.9697 5.41989C7.6681 5.41989 8.23436 4.65427 8.23436 3.70994C8.23436 2.76562 7.6681 2 6.9697 2C6.27131 2 5.70524 2.76562 5.70524 3.70994C5.70524 4.65427 6.27131 5.41989 6.9697 5.41989ZM9.52186 4.55566C9.00693 4.34943 8.28985 4.74649 7.91971 5.44249C7.54956 6.1385 7.66696 6.86971 8.18189 7.07594C8.69681 7.28201 9.41389 6.88495 9.78404 6.18911C10.1542 5.49327 10.0368 4.76189 9.52186 4.55566Z" fill="#14213D"/>
</svg>
